<svg xmlns="http://www.w3.org/2000/svg" viewBox="0 0 184 208"><defs><linearGradient id="bag" x1="0" y1="0" x2="1" y2=".8"><stop stop-color="#4b5b6b"/><stop offset=".7" stop-color="#172635"/><stop offset="1" stop-color="#4b5b6b"/></linearGradient></defs><ellipse cx="93" cy="196" rx="65" ry="7" fill="#102e48" opacity=".13"/><path d="M80 49C62 48 43 57 30 80C18 100 14 121 19 145C24 169 39 187 63 191C80 195 105 195 122 191C147 185 162 165 166 141C170 118 161 91 147 74C134 57 116 48 103 49Z" fill="url(#bag)" stroke="#b9cbd9" stroke-width="4.5" stroke-linejoin="round"/><path d="M80 49Q67 25 63 17Q83 14 93 39Q109 14 122 18Q118 40 103 49" fill="url(#bag)" stroke="#b9cbd9" stroke-width="4.5" stroke-linejoin="round"/><path d="M76 49Q91 58 107 48L111 58Q93 66 76 58Z" fill="#b9cbd9"/><path d="M75 62Q45 79 35 124M110 65Q136 81 145 121M37 157Q49 178 66 182M126 177Q143 166 149 144" fill="none" stroke="#b9cbd9" stroke-width="3" opacity=".42" stroke-linecap="round"/><path d="M49 77Q33 95 30 132" fill="none" stroke="#fff" stroke-width="6" opacity=".38" stroke-linecap="round"/><g transform="rotate(-8 95 129)" stroke="#947450" stroke-width="3" stroke-linejoin="round" stroke-linecap="round"><path d="M46 103 92 86 140 104 137 154 91 169 50 153Z" fill="#dab788"/><path d="M46 103 91 119 140 104 92 86Z" fill="#f3dab4"/><path d="M91 119V169" fill="none"/><path d="M49 131 91 147 138 132" fill="none" stroke="#b59162" stroke-width="2"/><path d="M71 105Q84 101 90 109Q95 106 103 108Q105 118 95 117Q89 123 80 116Q73 119 71 105Z" fill="#a16a38" stroke="#8b5d32" stroke-width="1.5"/><path d="M57 119 68 123M110 144 125 140" stroke="#f7e4c6" stroke-width="3"/><path d="M56 144 63 147M113 120 127 116" stroke="#a57849" stroke-width="3"/></g></svg>