<svg xmlns="http://www.w3.org/2000/svg" viewBox="0 0 184 208"><ellipse cx="92" cy="196" rx="65" ry="7" fill="#102e48" opacity=".13"/><g stroke="#346c5a" stroke-width="4" stroke-linecap="round" stroke-linejoin="round"><path d="M79 25H107V70Q107 77 119 86Q130 96 130 110V157Q130 168 119 171H66Q55 168 55 157V110Q55 96 67 86Q79 77 79 70Z" fill="#90c59b"/><path d="M81 25H105V33H81Z" fill="#6a9e71"/><path d="M86 40V70Q86 82 77 87Q66 97 65 110" fill="none" stroke="#e1f4d8" stroke-width="6"/><path d="M60 114H125V143H60Z" fill="#eaf2d1"/><path d="M76 124H111M82 133H105" stroke="#b1cc9c" stroke-width="3"/></g><path d="M24 150H161L153 177Q150 189 130 189H55Q34 189 31 177Z" fill="#76b5aa" stroke="#326f68" stroke-width="4.5"/><path d="M24 150Q92 142 161 150" fill="none" stroke="#b5e0cb" stroke-width="6"/><path d="M45 165H140M56 178H129" stroke="#c0e2d3" stroke-width="4" stroke-linecap="round"/></svg>